<?xml version="1.0" encoding="utf-8"?>
<!-- Generator: Adobe Illustrator 21.1.0, SVG Export Plug-In . SVG Version: 6.00 Build 0)  -->
<svg version="1.1" xmlns="http://www.w3.org/2000/svg" xmlns:xlink="http://www.w3.org/1999/xlink" x="0px" y="0px"
	 viewBox="0 0 100.3 100.2" style="enable-background:new 0 0 100.3 100.2;" xml:space="preserve">
<style type="text/css">
	.st0{fill:#E5C500;}
	.st1{fill:#FF0000;}
	.st2{opacity:0.24;fill:#FFFFFF;}
	.st3{fill:url(#SVGID_1_);stroke:#000000;stroke-width:0.75;stroke-miterlimit:10;}
	.st4{opacity:0.25;fill:none;stroke:#000000;stroke-width:0.75;stroke-miterlimit:10;}
	.st5{opacity:0.25;fill:none;stroke:#000000;stroke-width:0.5;stroke-miterlimit:10;}
	.st6{opacity:0.32;fill:none;stroke:#000000;stroke-width:0.75;stroke-miterlimit:10;}
</style>
<g id="Layer_2">
	<rect x="-2.5" y="-7.1" class="st0" width="107.2" height="111.4"/>
	<rect x="-189" y="-81.5" class="st1" width="100.3" height="100.3"/>
	
		<rect x="-59.4" y="18.5" transform="matrix(0.7071 -0.7071 0.7071 0.7071 -11.2371 21.8795)" class="st2" width="160.5" height="12.1"/>
	
		<rect x="-4.7" y="64.1" transform="matrix(0.7071 -0.7071 0.7071 0.7071 -27.459 73.9805)" class="st2" width="160.5" height="12.1"/>
	
		<rect x="-26.7" y="41.1" transform="matrix(0.7071 -0.7071 0.7071 0.7071 -17.6848 51.6444)" class="st2" width="160.5" height="12.1"/>
	
		<rect x="74.1" y="94.1" transform="matrix(0.7071 -0.7071 0.7071 0.7071 -41.4431 100.2755)" class="st2" width="52.5" height="12.1"/>
	
		<rect x="-26.1" y="-6" transform="matrix(0.7071 -0.7071 0.7071 0.7071 3.030083e-02 7.315266e-02)" class="st2" width="52.5" height="12.1"/>
	<linearGradient id="SVGID_1_" gradientUnits="userSpaceOnUse" x1="-234.3204" y1="99.171" x2="-136.0369" y2="99.171">
		<stop  offset="0.1969" style="stop-color:#E5C500"/>
		<stop  offset="0.5521" style="stop-color:#FBB03B"/>
		<stop  offset="0.9944" style="stop-color:#FBB03B"/>
	</linearGradient>
	<path class="st3" d="M-234.3,78.8c0.1,59.3,96.2,66.6,98.3-2.5c0.1-1.9-0.5-3.6-1.8-3.6h-92.5C-234,72.7-234.3,75.6-234.3,78.8z"/>
</g>
<g id="Layer_1">
	<path class="st4" d="M27.4,53.8c-11.4-11.3-31,5.8-18.2,19.3c0.3,0.4,0.8,0.6,1,0.3l2.2-2.2l15.4-15.5C28.6,55.1,28,54.4,27.4,53.8
		z"/>
	<path class="st4" d="M24.4,6.1c1.2-4.7-12.4-5.2-16.7,0"/>
	<ellipse transform="matrix(0.705 -0.7092 0.7092 0.705 -34.0143 33.455)" class="st5" cx="23.2" cy="57.6" rx="1.2" ry="1.2"/>
	<ellipse transform="matrix(0.705 -0.7092 0.7092 0.705 -36.4821 32.3711)" class="st5" cx="20.7" cy="60" rx="1.2" ry="1.2"/>
	<ellipse transform="matrix(0.705 -0.7092 0.7092 0.705 -34.2301 31.1006)" class="st5" cx="20.3" cy="56.7" rx="1.2" ry="1.2"/>
	<ellipse transform="matrix(0.705 -0.7092 0.7092 0.705 -39.3094 30.9143)" class="st5" cx="17.5" cy="62.7" rx="1.2" ry="1.2"/>
	<ellipse transform="matrix(0.705 -0.7092 0.7092 0.705 -36.8461 29.8103)" class="st5" cx="17.4" cy="59.2" rx="1.2" ry="1.2"/>
	<ellipse transform="matrix(0.705 -0.7092 0.7092 0.705 -40.9026 27.9663)" class="st5" cx="13.2" cy="63.1" rx="1.2" ry="1.2"/>
	<ellipse transform="matrix(0.705 -0.7092 0.7092 0.705 -44.7309 28.6756)" class="st5" cx="12.1" cy="68.1" rx="1.2" ry="1.2"/>
	<ellipse transform="matrix(0.705 -0.7092 0.7092 0.705 -41.7112 30.2464)" class="st5" cx="15.5" cy="65.3" rx="1.2" ry="1.2"/>
	<ellipse transform="matrix(0.705 -0.7092 0.7092 0.705 -43.2163 26.7984)" class="st5" cx="10.6" cy="65.3" rx="1.2" ry="1.2"/>
	<ellipse transform="matrix(0.705 -0.7092 0.7092 0.705 -40.4816 25.6404)" class="st5" cx="10.6" cy="61.5" rx="1.2" ry="1.2"/>
	<ellipse transform="matrix(0.705 -0.7092 0.7092 0.705 -38.5568 27.9978)" class="st5" cx="14.4" cy="60.3" rx="1.2" ry="1.2"/>
	<ellipse transform="matrix(0.705 -0.7092 0.7092 0.705 -34.8417 28.3971)" class="st5" cx="16.7" cy="56.1" rx="1.2" ry="1.2"/>
	<ellipse transform="matrix(0.705 -0.7092 0.7092 0.705 -37.4101 26.2626)" class="st5" cx="12.9" cy="58.1" rx="1.2" ry="1.2"/>
	<path class="st5" d="M9.1,54.4"/>
	<path class="st5" d="M19.3,64.4"/>
	<path class="st5" d="M5.1,64.3"/>
	<path class="st5" d="M19.1,50.2"/>
	<path class="st5" d="M19.3,64.4"/>
	<path class="st4" d="M22.4,5.7C12.7-3.3-4.8,12.8,6.3,23.8"/>
	<path class="st4" d="M6.3,23.8c0,0.1,0.7,1,3.2-1.7c3.3-3.6,14.9-16,14.9-16s-0.9,1-2-0.5"/>
	<path class="st4" d="M74.5,57.1c1.2-4.7-12.4-5.2-16.7,0"/>
	<path class="st4" d="M72.5,56.7c-9.7-8.9-27.2,7.2-16.1,18.2"/>
	<path class="st4" d="M56.4,74.8c0,0.1,0.7,1,3.2-1.7c3.3-3.6,14.9-16,14.9-16s-0.9,1-2-0.5"/>
	<path class="st6" d="M26.1,57.1c-6.1-4.9-9.9-5-15.2-0.7c0,0-6.5,8.3,1.4,14.7"/>
	<path class="st4" d="M72.3,8.4c-11.4-11.3-31,5.8-18.2,19.3c0.3,0.4,0.8,0.6,1,0.3l2.2-2.2l15.4-15.5C73.4,9.7,72.9,9,72.3,8.4z"/>
	<ellipse transform="matrix(0.705 -0.7092 0.7092 0.705 11.412 51.8582)" class="st5" cx="68" cy="12.2" rx="1.2" ry="1.2"/>
	<ellipse transform="matrix(0.705 -0.7092 0.7092 0.705 8.9442 50.7743)" class="st5" cx="65.5" cy="14.6" rx="1.2" ry="1.2"/>
	<ellipse transform="matrix(0.705 -0.7092 0.7092 0.705 11.1962 49.5038)" class="st5" cx="65.1" cy="11.3" rx="1.2" ry="1.2"/>
	<ellipse transform="matrix(0.705 -0.7092 0.7092 0.705 6.1168 49.3175)" class="st5" cx="62.3" cy="17.3" rx="1.2" ry="1.2"/>
	<ellipse transform="matrix(0.705 -0.7092 0.7092 0.705 8.5802 48.2135)" class="st5" cx="62.2" cy="13.8" rx="1.2" ry="1.2"/>
	<ellipse transform="matrix(0.705 -0.7092 0.7092 0.705 4.5237 46.3695)" class="st5" cx="58" cy="17.7" rx="1.2" ry="1.2"/>
	<ellipse transform="matrix(0.705 -0.7092 0.7092 0.705 0.6954 47.0789)" class="st5" cx="56.9" cy="22.7" rx="1.2" ry="1.2"/>
	<ellipse transform="matrix(0.705 -0.7092 0.7092 0.705 3.7151 48.6496)" class="st5" cx="60.3" cy="19.9" rx="1.2" ry="1.2"/>
	<ellipse transform="matrix(0.705 -0.7092 0.7092 0.705 2.21 45.2016)" class="st5" cx="55.4" cy="19.9" rx="1.2" ry="1.2"/>
	<ellipse transform="matrix(0.705 -0.7092 0.7092 0.705 4.9447 44.0436)" class="st5" cx="55.4" cy="16.1" rx="1.2" ry="1.2"/>
	<ellipse transform="matrix(0.705 -0.7092 0.7092 0.705 6.8695 46.401)" class="st5" cx="59.2" cy="14.9" rx="1.2" ry="1.2"/>
	<ellipse transform="matrix(0.705 -0.7092 0.7092 0.705 10.5846 46.8003)" class="st5" cx="61.5" cy="10.7" rx="1.2" ry="1.2"/>
	<ellipse transform="matrix(0.705 -0.7092 0.7092 0.705 8.0162 44.6658)" class="st5" cx="57.7" cy="12.7" rx="1.2" ry="1.2"/>
	<path class="st5" d="M53.9,9"/>
	<path class="st5" d="M64.1,19"/>
	<path class="st5" d="M49.9,18.9"/>
	<path class="st5" d="M63.9,4.8"/>
	<path class="st5" d="M64.1,19"/>
	<path class="st6" d="M71,11.7c-6.1-4.9-9.9-5-15.2-0.7c0,0-6.5,8.3,1.4,14.7"/>
</g>
<g id="Layer_3">
</g>
</svg>
