<?xml version="1.0" encoding="utf-8"?>
<!-- Generator: Adobe Illustrator 21.1.0, SVG Export Plug-In . SVG Version: 6.00 Build 0)  -->
<svg version="1.1" id="Layer_1" xmlns="http://www.w3.org/2000/svg" xmlns:xlink="http://www.w3.org/1999/xlink" x="0px" y="0px"
	 viewBox="0 0 110.8 115.7" style="enable-background:new 0 0 110.8 115.7;" xml:space="preserve">
<style type="text/css">
	.st0{fill:url(#SVGID_1_);stroke:#000000;stroke-width:0.75;stroke-miterlimit:10;}
	.st1{opacity:0.59;fill:#DAFF00;stroke:#000000;stroke-width:0.5;stroke-miterlimit:10;}
	.st2{fill:#EAC426;stroke:#000000;stroke-width:0.75;stroke-miterlimit:10;}
	.st3{fill:#DD6605;stroke:#000000;stroke-width:0.5;stroke-miterlimit:10;}
	.st4{fill:none;stroke:#000000;stroke-width:0.5;stroke-miterlimit:10;}
	.st5{opacity:0.34;fill:#7C3421;stroke:#000000;stroke-width:0.25;stroke-miterlimit:10;}
	.st6{opacity:0.76;fill:#7C3421;stroke:#000000;stroke-width:0.25;stroke-miterlimit:10;}
	.st7{opacity:0.69;fill:#7C3421;stroke:#000000;stroke-width:0.25;stroke-miterlimit:10;}
	.st8{opacity:0.74;fill:#7C3421;stroke:#000000;stroke-width:0.25;stroke-miterlimit:10;}
	.st9{opacity:0.58;fill:#FFF800;stroke:#000000;stroke-width:5.000000e-02;stroke-miterlimit:10;}
	.st10{opacity:0.28;fill:#FFF800;stroke:#000000;stroke-width:5.000000e-02;stroke-miterlimit:10;}
	.st11{opacity:0.27;fill:#FFF800;stroke:#000000;stroke-width:5.000000e-02;stroke-miterlimit:10;}
	.st12{opacity:0.74;fill:#FFF800;stroke:#000000;stroke-width:5.000000e-02;stroke-miterlimit:10;}
	.st13{opacity:0.86;fill:#FFF800;stroke:#000000;stroke-width:5.000000e-02;stroke-miterlimit:10;}
	.st14{opacity:0.83;fill:#FFF800;stroke:#000000;stroke-width:5.000000e-02;stroke-miterlimit:10;}
	.st15{opacity:0.71;fill:#FFF800;stroke:#000000;stroke-width:5.000000e-02;stroke-miterlimit:10;}
	.st16{opacity:0.77;fill:#FFF800;stroke:#000000;stroke-width:5.000000e-02;stroke-miterlimit:10;}
	.st17{opacity:0.51;fill:#FFF800;stroke:#000000;stroke-width:5.000000e-02;stroke-miterlimit:10;}
	.st18{opacity:0.6;fill:#FFF800;stroke:#000000;stroke-width:5.000000e-02;stroke-miterlimit:10;}
	.st19{opacity:0.54;fill:#0DFF5E;stroke:#000000;stroke-width:5.000000e-02;stroke-miterlimit:10;}
	.st20{opacity:0.72;fill:#0DFF5E;stroke:#000000;stroke-width:5.000000e-02;stroke-miterlimit:10;}
	.st21{opacity:0.81;fill:#0DFF5E;stroke:#000000;stroke-width:5.000000e-02;stroke-miterlimit:10;}
	.st22{opacity:0.9;fill:#0DFF5E;stroke:#000000;stroke-width:5.000000e-02;stroke-miterlimit:10;}
	.st23{opacity:0.85;fill:#0DFF5E;stroke:#000000;stroke-width:5.000000e-02;stroke-miterlimit:10;}
	.st24{fill:url(#SVGID_2_);stroke:#000000;stroke-width:0.75;stroke-miterlimit:10;}
</style>
<radialGradient id="SVGID_1_" cx="55.488" cy="83.5043" r="39.4799" gradientTransform="matrix(1 0 0 0.8 0 16.7009)" gradientUnits="userSpaceOnUse">
	<stop  offset="0.1188" style="stop-color:#FCEE21"/>
	<stop  offset="0.2562" style="stop-color:#FCEC22"/>
	<stop  offset="0.2698" style="stop-color:#FCEB22"/>
	<stop  offset="0.2772" style="stop-color:#FCEA22"/>
	<stop  offset="0.5757" style="stop-color:#FBCA30"/>
	<stop  offset="0.8272" style="stop-color:#FBB738"/>
	<stop  offset="1" style="stop-color:#FBB03B"/>
</radialGradient>
<path class="st0" d="M6.3,63.1c0.1,59.3,96.2,66.6,98.3-2.5c0.1-1.9-0.5-3.6-1.8-3.6H10.3C6.7,57,6.3,60,6.3,63.1z"/>
<path class="st1" d="M19.8,57.2c-0.1,57.5,75.7,50.1,72.6-0.2L19.8,57.2z"/>
<path class="st2" d="M103,48.4c-0.2-52.2-88.9-58.7-90.8,2.3c-0.1,1.7-0.6,2.3,1.1,2.3l86.4,1C102.7,54,103,51.3,103,48.4z"/>
<circle class="st3" cx="27.3" cy="64.4" r="4.4"/>
<circle class="st3" cx="40.3" cy="64.8" r="4.4"/>
<circle class="st3" cx="34.6" cy="76.5" r="4.4"/>
<circle class="st3" cx="53.6" cy="64.1" r="4.4"/>
<circle class="st3" cx="48.6" cy="73.5" r="4.4"/>
<circle class="st3" cx="65" cy="64.2" r="4.4"/>
<circle class="st3" cx="70.1" cy="74.4" r="4.4"/>
<circle class="st3" cx="85.9" cy="64.2" r="4.4"/>
<circle class="st3" cx="75.5" cy="64.7" r="4.4"/>
<circle class="st3" cx="80.6" cy="77.3" r="4.4"/>
<circle class="st3" cx="68.5" cy="85.5" r="4.4"/>
<circle class="st3" cx="59.6" cy="78.5" r="4.4"/>
<circle class="st3" cx="44.3" cy="85.5" r="4.4"/>
<circle class="st3" cx="55.6" cy="90.3" r="4.4"/>
<path class="st4" d="M55.8,110"/>
<path class="st4" d="M55.5,57"/>
<path class="st4" d="M92.2,94.8"/>
<path class="st4" d="M18.6,94.8"/>
<path class="st4" d="M55.5,57"/>
<path class="st5" d="M99.2,49.9c-0.5-1,3.1-4.2,0.1-4.6s-3.8,3-3.8,3l3.2,3.8C98.8,52.1,100.8,52.8,99.2,49.9z"/>
<path class="st5" d="M99.7,51.2c-0.5-1,3.1-4.2,0.1-4.6s-3.8,3-3.8,3l3.2,3.8C99.3,53.4,101.3,54.1,99.7,51.2z"/>
<path class="st5" d="M98.5,49.6c0.8,0.8-1.9,4.9,1.1,4.5c3-0.5,2.9-3.9,2.9-3.9l-4.1-2.8C98.4,47.3,96.2,47.2,98.5,49.6z"/>
<path class="st5" d="M98.3,51.1c0.7-0.7,4.3,1.8,3.9-0.9c-0.4-2.7-3.4-2.7-3.4-2.7l-2.5,3.7C96.3,51.2,96.2,53.2,98.3,51.1z"/>
<path class="st5" d="M98.9,48.1c1,0.1,1.3,4.5,3.1,2.5c1.8-2,0-4.3,0-4.3l-4.4,0.3C97.6,46.6,96,47.7,98.9,48.1z"/>
<path class="st5" d="M96.9,49.3c1,0.1,1.3,4.5,3.1,2.5c1.8-2,0-4.3,0-4.3l-4.4,0.3C95.6,47.7,94.1,48.9,96.9,49.3z"/>
<path class="st6" d="M100.1,49.1c-0.3,0.9-4.6,0.3-3.1,2.6c1.5,2.3,4.2,0.9,4.2,0.9l0.6-4.4C101.8,48.1,101,46.3,100.1,49.1z"/>
<path class="st5" d="M95.3,47.8c1,0.1,1.3,4.5,3.1,2.5c1.8-2,0-4.3,0-4.3L94,46.3C94,46.3,92.4,47.5,95.3,47.8z"/>
<path class="st7" d="M101.2,50.3c-0.9-0.3-0.5-4.7-2.7-3c-2.1,1.7-0.7,4.3-0.7,4.3l4.4,0.4C102.3,52,104,51.2,101.2,50.3z"/>
<path class="st5" d="M95.8,46.4c1,0.1,1.3,4.5,3.1,2.5c1.8-2,0-4.3,0-4.3l-4.4,0.3C94.6,44.8,93,46,95.8,46.4z"/>
<path class="st5" d="M97,47.9c1,0.1,1.3,4.5,3.1,2.5c1.8-2,0-4.3,0-4.3l-4.4,0.3C95.7,46.4,94.1,47.5,97,47.9z"/>
<path class="st8" d="M96.9,50.6c1,0.1,1.3,4.5,3.1,2.5s0-4.3,0-4.3l-4.4,0.3C95.6,49.1,94,50.2,96.9,50.6z"/>
<path class="st5" d="M96,48c0.8,0.5-0.6,4.7,1.9,3.6c2.5-1.1,1.7-4,1.7-4l-4.1-1.5C95.3,46.1,93.5,46.5,96,48z"/>
<path class="st5" d="M98.6,47.3c-0.5-1,3.1-4.2,0.1-4.6c-3-0.3-3.8,3-3.8,3l3.2,3.8C98.1,49.6,100.2,50.3,98.6,47.3z"/>
<path class="st5" d="M99.1,48.7c-0.5-1,3.1-4.2,0.1-4.6s-3.8,3-3.8,3l3.2,3.8C98.6,50.9,100.7,51.6,99.1,48.7z"/>
<path class="st5" d="M96.5,48.5c0.8,0.8-1.9,4.9,1.1,4.5c3-0.5,2.9-3.9,2.9-3.9l-4.1-2.8C96.3,46.3,94.2,46.1,96.5,48.5z"/>
<path class="st5" d="M99,49.2c0.8,0.8-1.9,4.9,1.1,4.5c3-0.5,2.9-3.9,2.9-3.9l-4.1-2.8C98.8,46.9,96.7,46.8,99,49.2z"/>
<path class="st5" d="M97.6,48.6c0.7-0.7,4.3,1.8,3.9-0.9c-0.4-2.7-3.4-2.7-3.4-2.7l-2.5,3.7C95.7,48.7,95.6,50.6,97.6,48.6z"/>
<path class="st5" d="M98.2,45.6c1,0.1,1.3,4.5,3.1,2.5s0-4.3,0-4.3l-4.4,0.3C96.9,44.1,95.3,45.2,98.2,45.6z"/>
<path class="st5" d="M96.3,46.7c1,0.1,1.3,4.5,3.1,2.5c1.8-2,0-4.3,0-4.3L95,45.2C95,45.2,93.4,46.3,96.3,46.7z"/>
<path class="st6" d="M99.4,46.5c-0.3,0.9-4.6,0.3-3.1,2.6c1.5,2.3,4.2,0.9,4.2,0.9l0.6-4.4C101.1,45.5,100.4,43.7,99.4,46.5z"/>
<path class="st5" d="M94.7,45.3c1,0.1,1.3,4.5,3.1,2.5c1.8-2,0-4.3,0-4.3l-4.4,0.3C93.4,43.8,91.8,44.9,94.7,45.3z"/>
<path class="st7" d="M100.6,47.8c-0.9-0.3-0.5-4.7-2.7-3c-2.1,1.7-0.7,4.3-0.7,4.3l4.4,0.4C101.6,49.5,103.4,48.6,100.6,47.8z"/>
<path class="st5" d="M95.2,43.8c1,0.1,1.3,4.5,3.1,2.5c1.8-2,0-4.3,0-4.3l-4.4,0.3C93.9,42.3,92.3,43.4,95.2,43.8z"/>
<path class="st5" d="M96.4,45.4c1,0.1,1.3,4.5,3.1,2.5c1.8-2,0-4.3,0-4.3l-4.4,0.3C95.1,43.9,93.5,45,96.4,45.4z"/>
<path class="st8" d="M96.3,48c1,0.1,1.3,4.5,3.1,2.5c1.8-2,0-4.3,0-4.3L95,46.5C95,46.5,93.4,47.6,96.3,48z"/>
<path class="st5" d="M95.3,45.5c0.8,0.5-0.6,4.7,1.9,3.6c2.5-1.1,1.7-4,1.7-4l-4.1-1.5C94.7,43.6,92.8,44,95.3,45.5z"/>
<path class="st9" d="M95.2,39.3c-2.1-0.6-2.3-2.6-2.8-4.8c-0.5-2.2,1.9,4.3,3.5,4S96.8,39.8,95.2,39.3z"/>
<path class="st10" d="M95.8,41.7c0,0,2,2.2,5.2,0.7l0.2,0.2c0,0-3.3,2-5.7-0.7L95.8,41.7z"/>
<path class="st10" d="M95.5,40.9c0,0,2,2.2,5.2,0.7l0.2,0.2c0,0-3.3,2-5.7-0.7L95.5,40.9z"/>
<path class="st10" d="M96.1,40.3c0,0,1.5,1.5,4.3,0l0.1,0.2c0,0-2.9,1.9-4.7,0L96.1,40.3z"/>
<path class="st10" d="M92.8,31.8c0,0-1.8,3.5,2.1,7.1l-0.2,0.3c0,0-4.5-3.4-2.4-7.7L92.8,31.8z"/>
<path class="st11" d="M98.4,43.1c-3.1,0.5-5.2,1.4-7.9,2.5c-2.6,1,6.5-2.2,7.9-2.2C99.9,43.3,100.8,42.6,98.4,43.1z"/>
<path class="st12" d="M100.6,43.8c0,0-3.9-2.1-6.1-0.7l-0.4-0.2c0,0,1.8-2,6.6,0.7L100.6,43.8z"/>
<path class="st10" d="M100.1,46.5c0,0-0.2-4.4-2.6-5.5l0-0.4c0,0,2.6,0.5,2.9,6L100.1,46.5z"/>
<path class="st10" d="M95.7,40.3c0,0-0.2-4.4-2.6-5.5l0-0.4c0,0,2.6,0.5,2.9,6L95.7,40.3z"/>
<path class="st10" d="M96.4,40.4c0,0-0.2-4.4-2.6-5.5l0-0.4c0,0,2.6,0.5,2.9,6L96.4,40.4z"/>
<path class="st10" d="M96.3,46c0,0,2.3-1.9,0.9-5.2l0.2-0.2c0,0,1.9,3.3-0.9,5.7L96.3,46z"/>
<path class="st10" d="M92.8,39.2c0,0,2.3-1.9,0.9-5.2l0.2-0.2c0,0,1.9,3.3-0.9,5.7L92.8,39.2z"/>
<path class="st10" d="M100.5,45.2c0,0-1.1-1.8-4.2-1l-0.1-0.2c0,0,3.2-1.2,4.6,1L100.5,45.2z"/>
<path class="st10" d="M91.2,33.6c0,0,0.2,3.9,5.4,5.1l0,0.4c0,0-5.6-0.7-5.9-5.5L91.2,33.6z"/>
<path class="st11" d="M97.2,41.2c-3.2-0.2-5.4-1.3-8.1-2.5c-2.7-1.2,6.7,2.4,8.2,2C98.8,40.3,99.6,41.3,97.2,41.2z"/>
<path class="st11" d="M98,43.3c-3.2-0.2-5.4-1.3-8.1-2.5c-2.7-1.2,6.7,2.4,8.2,2C99.7,42.4,100.5,43.4,98,43.3z"/>
<path class="st11" d="M99.7,42.7c-3.1,0.1-5.4,0.7-8.1,1.3c-2.7,0.6,6.7-1.2,8.2-1C101.1,43.1,102.1,42.6,99.7,42.7z"/>
<path class="st11" d="M98.9,42.4c-3-0.9-5.3-1-8.1-1.3c-2.8-0.2,6.8,0.9,8.1,1.5C100.1,43.2,101.2,43,98.9,42.4z"/>
<path class="st10" d="M99.2,44.6c0,0-2.4-3.7-5.1-3.4l-0.2-0.4c0,0,2.5-0.9,5.5,3.7L99.2,44.6z"/>
<path class="st13" d="M101.1,45.2c0,0-2.4-3.7-5.1-3.4l-0.2-0.4c0,0,2.5-0.9,5.5,3.7L101.1,45.2z"/>
<path class="st10" d="M99,44.2c0,0-2.4-3.7-5.1-3.4l-0.2-0.4c0,0,2.5-0.9,5.5,3.7L99,44.2z"/>
<path class="st9" d="M98.8,39.9c0,0-2.4-3.7-5.1-3.4l-0.2-0.4c0,0,2.5-0.9,5.5,3.7L98.8,39.9z"/>
<path class="st10" d="M100.9,43.5c0,0-4.2-1.3-6.1,0.6l-0.4-0.1c0,0,1.3-2.3,6.6-0.7L100.9,43.5z"/>
<path class="st10" d="M101.2,43.2c0,0-4.3-1.1-6.1,0.9l-0.4-0.1c0,0,1.2-2.4,6.6-1.1L101.2,43.2z"/>
<path class="st10" d="M94.9,43.1c0,0,4,2,6.2,0.4l0.4,0.2c0,0-1.7,2.1-6.7-0.3L94.9,43.1z"/>
<path class="st10" d="M95.1,43.9c0,0,4,2,6.2,0.4l0.4,0.2c0,0-1.7,2.1-6.7-0.3L95.1,43.9z"/>
<path class="st14" d="M94.3,41.8c0,0,4,2,6.2,0.4l0.4,0.2c0,0-1.7,2.1-6.7-0.3L94.3,41.8z"/>
<path class="st10" d="M96.4,43.6c0,0,2.1-3.9,0.6-6.2l0.2-0.4c0,0,2,1.8-0.6,6.7L96.4,43.6z"/>
<path class="st15" d="M101.1,44.2c0,0-4.7-2.3-7.3-0.2l-0.5-0.2c0,0,2.1-2.6,8,0.2L101.1,44.2z"/>
<path class="st10" d="M93.6,41.6c0,0,4,2,6.2,0.4l0.4,0.2c0,0-1.7,2.1-6.7-0.3L93.6,41.6z"/>
<path class="st10" d="M95,41.3c0,0,4,2,6.2,0.4l0.4,0.2c0,0-1.7,2.1-6.7-0.3L95,41.3z"/>
<path class="st16" d="M93.3,40.9c0,0,4,2,6.2,0.4l0.4,0.2c0,0-1.7,2.1-6.7-0.3L93.3,40.9z"/>
<path class="st10" d="M93.4,36.3c0,0,2,2.2,5.2,0.7l0.2,0.2c0,0-3.3,2-5.7-0.7L93.4,36.3z"/>
<path class="st10" d="M97.9,42c0,0-0.2-4.4-2.6-5.5l0-0.4c0,0,2.6,0.5,2.9,6L97.9,42z"/>
<path class="st9" d="M99.4,39.7c0,0-2.4-3.7-5.1-3.4l-0.2-0.4c0,0,2.5-0.9,5.5,3.7L99.4,39.7z"/>
<path class="st14" d="M94,38c0,0,4,2,6.2,0.4l0.4,0.2c0,0-1.7,2.1-6.7-0.3L94,38z"/>
<path class="st10" d="M91.3,36.8c0,0,4,2,6.2,0.4l0.4,0.2c0,0-1.7,2.1-6.7-0.3L91.3,36.8z"/>
<path class="st17" d="M93.8,36.2c0,0,3.3,3,5.8,2.1l0.3,0.3c0,0-2.2,1.5-6.3-2.2L93.8,36.2z"/>
<path class="st16" d="M91.2,36.4c0,0,4,2,6.2,0.4l0.4,0.2c0,0-1.7,2.1-6.7-0.3L91.2,36.4z"/>
<path class="st10" d="M93.2,35.2c0,0,2,2.2,5.2,0.7l0.2,0.2c0,0-3.3,2-5.7-0.7L93.2,35.2z"/>
<path class="st10" d="M98.9,41.5c0,0-0.2-4.4-2.6-5.5l0-0.4c0,0,2.6,0.5,2.9,6L98.9,41.5z"/>
<path class="st9" d="M100.4,40.8c0,0-3.7,2.5-3.4,5.1l-0.4,0.2c0,0-0.9-2.5,3.7-5.5L100.4,40.8z"/>
<path class="st14" d="M93.4,37.4c0,0,4,2,6.2,0.4L100,38c0,0-1.7,2.1-6.7-0.3L93.4,37.4z"/>
<path class="st10" d="M91.1,35.7c0,0,4,2,6.2,0.4l0.4,0.2c0,0-1.7,2.1-6.7-0.3L91.1,35.7z"/>
<path class="st10" d="M92.3,35.9c0,0,3.9,2.2,4,4.4l0.4,0.2c0,0,0.5-2-4.3-4.7L92.3,35.9z"/>
<path class="st16" d="M91,35.3c0,0,4,2,6.2,0.4l0.4,0.2c0,0-1.7,2.1-6.7-0.3L91,35.3z"/>
<path class="st10" d="M97,41.6c0,0,0.7-2.9-2.4-4.7l0.1-0.3c0,0,3.5,1.5,2.7,5.1L97,41.6z"/>
<path class="st10" d="M98.3,37.9c0,0-3.5,2.7-3.1,5.3l-0.4,0.3c0,0-1.1-2.4,3.3-5.8L98.3,37.9z"/>
<path class="st9" d="M97.6,35.4c0,0-1.7,4.1,0,6.1l-0.2,0.4c0,0-2.2-1.5-0.1-6.6L97.6,35.4z"/>
<path class="st14" d="M98.5,42.4c0,0-0.6-4.4-3.2-5.3l0-0.4c0,0,2.7,0.2,3.5,5.7L98.5,42.4z"/>
<path class="st10" d="M97.5,43.6c0,0-0.6-4.4-3.2-5.3l0-0.4c0,0,2.7,0.2,3.5,5.7L97.5,43.6z"/>
<path class="st10" d="M97.6,42c0,0-0.6-4.4-3.2-5.3l0-0.4c0,0,2.7,0.2,3.5,5.7L97.6,42z"/>
<path class="st16" d="M97.2,44c0,0-0.6-4.4-3.2-5.3l0-0.4c0,0,2.7,0.2,3.5,5.7L97.2,44z"/>
<path class="st10" d="M95,42.7c0,0,3.6,2.7,6,1.6l0.3,0.3c0,0-2.1,1.7-6.5-1.7L95,42.7z"/>
<path class="st5" d="M98.4,47.4c-0.5-1,3.1-4.2,0.1-4.6c-3-0.3-3.8,3-3.8,3l3.2,3.8C98,49.6,100,50.3,98.4,47.4z"/>
<path class="st5" d="M94.6,45.3c1,0.1,1.3,4.5,3.1,2.5c1.8-2,0-4.3,0-4.3l-4.4,0.3C93.3,43.8,91.7,44.9,94.6,45.3z"/>
<path class="st5" d="M95.1,43.8c1,0.1,1.3,4.5,3.1,2.5c1.8-2,0-4.3,0-4.3l-4.4,0.3C93.8,42.3,92.2,43.4,95.1,43.8z"/>
<path class="st5" d="M96.2,45.4c1,0.1,1.3,4.5,3.1,2.5c1.8-2,0-4.3,0-4.3l-4.4,0.3C94.9,43.9,93.3,45,96.2,45.4z"/>
<path class="st5" d="M95.2,45.5c0.8,0.5-0.6,4.7,1.9,3.6c2.5-1.1,1.7-4,1.7-4l-4.1-1.5C94.6,43.6,92.7,44,95.2,45.5z"/>
<path class="st5" d="M97.8,44.8c-0.5-1,3.1-4.2,0.1-4.6c-3-0.3-3.8,3-3.8,3l3.2,3.8C97.3,47.1,99.4,47.8,97.8,44.8z"/>
<path class="st5" d="M98.3,46.1c-0.5-1,3.1-4.2,0.1-4.6s-3.8,3-3.8,3l3.2,3.8C97.8,48.4,99.9,49.1,98.3,46.1z"/>
<path class="st5" d="M97.1,44.5c0.8,0.8-1.9,4.9,1.1,4.5c3-0.5,2.9-3.9,2.9-3.9l-4.1-2.8C96.9,42.3,94.8,42.2,97.1,44.5z"/>
<path class="st5" d="M96.9,46c0.7-0.7,4.3,1.8,3.9-0.9c-0.4-2.7-3.4-2.7-3.4-2.7l-2.5,3.7C94.9,46.2,94.8,48.1,96.9,46z"/>
<path class="st5" d="M97.4,43c1,0.1,1.3,4.5,3.1,2.5c1.8-2,0-4.3,0-4.3l-4.4,0.3C96.1,41.5,94.6,42.7,97.4,43z"/>
<path class="st5" d="M95.5,44.2c1,0.1,1.3,4.5,3.1,2.5c1.8-2,0-4.3,0-4.3l-4.4,0.3C94.2,42.7,92.6,43.8,95.5,44.2z"/>
<path class="st6" d="M98.7,44c-0.3,0.9-4.6,0.3-3.1,2.6c1.5,2.3,4.2,0.9,4.2,0.9l0.6-4.4C100.4,43,99.6,41.2,98.7,44z"/>
<path class="st5" d="M93.9,42.8c1,0.1,1.3,4.5,3.1,2.5c1.8-2,0-4.3,0-4.3l-4.4,0.3C92.6,41.3,91,42.4,93.9,42.8z"/>
<path class="st7" d="M99.8,45.2c-0.9-0.3-0.5-4.7-2.7-3c-2.1,1.7-0.7,4.3-0.7,4.3l4.4,0.4C100.9,46.9,102.6,46.1,99.8,45.2z"/>
<path class="st5" d="M94.4,41.3c1,0.1,1.3,4.5,3.1,2.5c1.8-2,0-4.3,0-4.3l-4.4,0.3C93.1,39.8,91.6,40.9,94.4,41.3z"/>
<path class="st5" d="M95.6,42.9c1,0.1,1.3,4.5,3.1,2.5c1.8-2,0-4.3,0-4.3l-4.4,0.3C94.3,41.4,92.7,42.5,95.6,42.9z"/>
<path class="st8" d="M95.5,45.5c1,0.1,1.3,4.5,3.1,2.5c1.8-2,0-4.3,0-4.3L94.2,44C94.2,44,92.6,45.1,95.5,45.5z"/>
<path class="st5" d="M94.5,43c0.8,0.5-0.6,4.7,1.9,3.6c2.5-1.1,1.7-4,1.7-4l-4.1-1.5C93.9,41.1,92.1,41.5,94.5,43z"/>
<path class="st10" d="M95,39.2c0,0,2,2.2,5.2,0.7l0.2,0.2c0,0-3.3,2-5.7-0.7L95,39.2z"/>
<path class="st10" d="M94.7,38.4c0,0,2,2.2,5.2,0.7l0.2,0.2c0,0-3.3,2-5.7-0.7L94.7,38.4z"/>
<path class="st18" d="M96.4,37.1c0,0,0.6,2,3.8,1.9l0,0.2c0,0-3.4,0.4-4.2-2.1L96.4,37.1z"/>
<path class="st11" d="M97.6,40.5c-3.1,0.5-5.2,1.4-7.9,2.5c-2.6,1,6.5-2.2,7.9-2.2C99.1,40.8,100,40.1,97.6,40.5z"/>
<path class="st12" d="M99.9,41.3c0,0-3.9-2.1-6.1-0.7l-0.4-0.2c0,0,1.8-2,6.6,0.7L99.9,41.3z"/>
<path class="st10" d="M99.3,43.2c0,0-0.2-4.4-2.6-5.5l0-0.4c0,0,2.6,0.5,2.9,6L99.3,43.2z"/>
<path class="st10" d="M99.5,44c0,0-2.5-3.1-5-2.5l-0.2-0.3c0,0,2.4-1.2,5.5,2.6L99.5,44z"/>
<path class="st10" d="M95.5,43.5c0,0,2.3-1.9,0.9-5.2l0.2-0.2c0,0,1.9,3.3-0.9,5.7L95.5,43.5z"/>
<path class="st10" d="M99.7,42.7c0,0-1.1-1.8-4.2-1l-0.1-0.2c0,0,3.2-1.2,4.6,1L99.7,42.7z"/>
<path class="st11" d="M99.4,39.9c-3.2-0.2-5.4-1.3-8.1-2.5c-2.7-1.2,6.7,2.4,8.2,2C101,39,101.8,40,99.4,39.9z"/>
<path class="st11" d="M97.3,40.7c-3.2-0.2-5.4-1.3-8.1-2.5c-2.7-1.2,6.7,2.4,8.2,2C98.9,39.9,99.7,40.9,97.3,40.7z"/>
<path class="st11" d="M98.9,40.1c-3.1,0.1-5.4,0.7-8.1,1.3c-2.7,0.6,6.7-1.2,8.2-1C100.4,40.6,101.3,40.1,98.9,40.1z"/>
<path class="st11" d="M98.1,39.8c-3-0.9-5.3-1-8.1-1.3c-2.8-0.2,6.8,0.9,8.1,1.5C99.4,40.7,100.4,40.5,98.1,39.8z"/>
<path class="st10" d="M98.4,42c0,0-2.4-3.7-5.1-3.4l-0.2-0.4c0,0,2.5-0.9,5.5,3.7L98.4,42z"/>
<path class="st13" d="M100.3,42.7c0,0-2.4-3.7-5.1-3.4L95,38.9c0,0,2.5-0.9,5.5,3.7L100.3,42.7z"/>
<path class="st13" d="M98.9,43.6c0,0-2.4-3.7-5.1-3.4l-0.2-0.4c0,0,2.5-0.9,5.5,3.7L98.9,43.6z"/>
<path class="st13" d="M101.6,42.8c0,0-2.4-3.7-5.1-3.4L96.3,39c0,0,2.5-0.9,5.5,3.7L101.6,42.8z"/>
<path class="st10" d="M98.2,41.7c0,0-2.4-3.7-5.1-3.4l-0.2-0.4c0,0,2.5-0.9,5.5,3.7L98.2,41.7z"/>
<path class="st10" d="M100.1,40.9c0,0-4.2-1.3-6.1,0.6l-0.4-0.1c0,0,1.3-2.3,6.6-0.7L100.1,40.9z"/>
<path class="st10" d="M100.4,40.7c0,0-4.3-1.1-6.1,0.9l-0.4-0.1c0,0,1.2-2.4,6.6-1.1L100.4,40.7z"/>
<path class="st10" d="M94.2,40.5c0,0,4,2,6.2,0.4l0.4,0.2c0,0-1.7,2.1-6.7-0.3L94.2,40.5z"/>
<path class="st10" d="M94.3,41.3c0,0,4,2,6.2,0.4l0.4,0.2c0,0-1.7,2.1-6.7-0.3L94.3,41.3z"/>
<path class="st14" d="M93.5,39.3c0,0,4,2,6.2,0.4l0.4,0.2c0,0-1.7,2.1-6.7-0.3L93.5,39.3z"/>
<path class="st10" d="M95.6,41.1c0,0,2.1-3.9,0.6-6.2l0.2-0.4c0,0,2,1.8-0.6,6.7L95.6,41.1z"/>
<path class="st10" d="M97.8,42.3c0,0,2.1-3.9,0.6-6.2l0.2-0.4c0,0,2,1.8-0.6,6.7L97.8,42.3z"/>
<path class="st15" d="M100.4,41.7c0,0-4.7-2.3-7.3-0.2l-0.5-0.2c0,0,2.1-2.6,8,0.2L100.4,41.7z"/>
<path class="st10" d="M94.5,39.6c0,0,4,2,6.2,0.4l0.4,0.2c0,0-1.7,2.1-6.7-0.3L94.5,39.6z"/>
<path class="st10" d="M96.1,38c0,0-1.3,4.3,0.6,6.2l-0.1,0.4c0,0-2.3-1.4-0.7-6.7L96.1,38z"/>
<path class="st10" d="M95.1,41.2c0,0,4,2,6.2,0.4l0.4,0.2c0,0-1.7,2.1-6.7-0.3L95.1,41.2z"/>
<path class="st16" d="M91.5,41.3c0,0,4,2,6.2,0.4l0.4,0.2c0,0-1.7,2.1-6.7-0.3L91.5,41.3z"/>
<path class="st10" d="M96.8,43.8c0,0-0.2-4.4-2.6-5.5l0-0.4c0,0,2.6,0.5,2.9,6L96.8,43.8z"/>
<path class="st10" d="M98.1,39c0,0-0.2-4.4-2.6-5.5l0-0.4c0,0,2.6,0.5,2.9,6L98.1,39z"/>
<path class="st9" d="M100.8,40.5c0,0-3.7,2.5-3.4,5.1L97,45.8c0,0-0.9-2.5,3.7-5.5L100.8,40.5z"/>
<path class="st9" d="M100.2,37.2c0,0-3.7,2.5-3.4,5.1l-0.4,0.2c0,0-0.9-2.5,3.7-5.5L100.2,37.2z"/>
<path class="st10" d="M96.3,39.1c0,0,0.7-2.9-2.4-4.7l0.1-0.3c0,0,3.5,1.5,2.7,5.1L96.3,39.1z"/>
<path class="st10" d="M97.5,35.4c0,0-3.5,2.7-3.1,5.3l-0.4,0.3c0,0-1.1-2.4,3.3-5.8L97.5,35.4z"/>
<path class="st9" d="M96.8,32.9c0,0-1.7,4.1,0,6.1l-0.2,0.4c0,0-2.2-1.5-0.1-6.6L96.8,32.9z"/>
<path class="st14" d="M99.7,46c0,0,0-4.5-2.4-5.7l0-0.4c0,0,2.6,0.6,2.7,6.2L99.7,46z"/>
<path class="st10" d="M96.8,41.1c0,0-0.6-4.4-3.2-5.3l0-0.4c0,0,2.7,0.2,3.5,5.7L96.8,41.1z"/>
<path class="st10" d="M99.6,42.7c0,0-0.6-4.4-3.2-5.3l0-0.4c0,0,2.7,0.2,3.5,5.7L99.6,42.7z"/>
<path class="st10" d="M100.4,41.9c0,0-0.6-4.4-3.2-5.3l0-0.4c0,0,2.7,0.2,3.5,5.7L100.4,41.9z"/>
<path class="st10" d="M101.9,44.9c0,0-0.6-4.4-3.2-5.3l0-0.4c0,0,2.7,0.2,3.5,5.7L101.9,44.9z"/>
<path class="st10" d="M96.9,39.5c0,0-0.6-4.4-3.2-5.3l0-0.4c0,0,2.7,0.2,3.5,5.7L96.9,39.5z"/>
<path class="st10" d="M94.2,40.2c0,0,3.6,2.7,6,1.6l0.3,0.3c0,0-2.1,1.7-6.5-1.7L94.2,40.2z"/>
<path class="st19" d="M91.7,32.2c0,0,8.6,2.3,5,3.7l-0.3-0.3c0,0,1.6-1.3,1-1.4s-5.9-1.8-5.9-1.8L91.7,32.2z"/>
<path class="st20" d="M98.5,33.8c0,0-7.7,4.5-6.1,0.9l0.4,0c0,0-0.3,2.1,0.2,1.7c0.5-0.4,5.4-2.9,5.4-2.9L98.5,33.8z"/>
<path class="st20" d="M99.5,34.5c0,0-7.7,4.5-6.1,0.9l0.4,0c0,0-0.3,2.1,0.2,1.7s5.4-2.9,5.4-2.9L99.5,34.5z"/>
<path class="st21" d="M97.7,31.4c0,0-10.7,4.9-1,5.5l0-0.4c0,0-4-0.7-3.5-1c0,0-0.7-0.3,4.6-3.6L97.7,31.4z"/>
<path class="st19" d="M92.2,35.9c0,0,7.1-3.3,0.7-3.6l0,0.3c0,0,2.7,0.4,2.3,0.7c0,0,0.5,0.2-3,2.4L92.2,35.9z"/>
<path class="st19" d="M96.2,31.5c0,0-1.7,6.5-2.8,3.8l0.2-0.2c0,0,1,1.2,1,0.8c0.1-0.5,1.4-4.5,1.4-4.5L96.2,31.5z"/>
<path class="st19" d="M95,36.7c0,0-3.4-5.8-0.7-4.7l0,0.3c0,0-1.6-0.2-1.3,0.2c0.3,0.4,2.2,4.1,2.2,4.1L95,36.7z"/>
<path class="st19" d="M96.8,36.1c0,0-3.7-8.1-4.2-0.8l0.3,0c0,0,0.5-3.1,0.8-2.6c0,0,0.2-0.5,2.7,3.5L96.8,36.1z"/>
<path class="st19" d="M93.4,31.9c0,0,2.5,5.4,2.8,0.5l-0.2,0c0,0-0.3,2-0.5,1.8c0,0-0.1,0.4-1.8-2.3L93.4,31.9z"/>
<path class="st22" d="M95.9,29.8c0,0-0.7,11.1-3.3,7l0.2-0.4c0,0,2,1.7,1.9,0.9s0.8-7.7,0.8-7.7L95.9,29.8z"/>
<path class="st19" d="M95.5,38.5c0,0-7.3-8.3-2.6-7.3l0.1,0.4c0,0-2.6,0.2-2,0.7c0.6,0.5,4.9,6,4.9,6L95.5,38.5z"/>
<path class="st19" d="M98.2,37c0,0-8.6-11.9-7,0.1l0.5-0.1c0,0-0.2-5.1,0.4-4.5c0,0,0.2-0.9,5.5,4.7L98.2,37z"/>
<path class="st19" d="M91.5,31.2c0,0,5.7,7.9,4.6,0l-0.4,0.1c0,0,0.1,3.4-0.3,3c0,0-0.1,0.6-3.7-3.2L91.5,31.2z"/>
<path class="st19" d="M97.8,35.2c0,0-8.4-0.5-5.3-2.5l0.3,0.2c0,0-1.3,1.5-0.7,1.5s5.8,0.6,5.8,0.6L97.8,35.2z"/>
<path class="st19" d="M93.9,29.8c0,0-8.4-0.5-5.3-2.5l0.3,0.2c0,0-1.3,1.5-0.7,1.5c0.6,0,5.8,0.6,5.8,0.6L93.9,29.8z"/>
<path class="st19" d="M95.4,31.2c0,0-8.4-0.5-5.3-2.5l0.3,0.2c0,0-1.3,1.5-0.7,1.5c0.6,0,5.8,0.6,5.8,0.6L95.4,31.2z"/>
<path class="st23" d="M91.2,34.9c0,0,6.3-5.6,5.5-2L96.4,33c0,0-0.1-2-0.5-1.5c-0.4,0.4-4.5,3.7-4.5,3.7L91.2,34.9z"/>
<path class="st19" d="M92.3,36.9c0,0,9-6.5-0.1-5.3l0.1,0.4c0,0,3.9-0.1,3.4,0.3c0,0,0.7,0.1-3.6,4.2L92.3,36.9z"/>
<path class="st19" d="M96.7,31.8c0,0-6,4.3,0,3.5l0-0.3c0,0-2.6,0.1-2.3-0.2c0,0-0.5-0.1,2.4-2.8L96.7,31.8z"/>
<path class="st19" d="M92.9,26.9c0,0-6,4.3,0,3.5l0-0.3c0,0-2.6,0.1-2.3-0.2c0,0-0.5-0.1,2.4-2.8L92.9,26.9z"/>
<path class="st19" d="M94.7,31.4c0,0,0.6,6.5-1.4,4.5l0.1-0.3c0,0,1.4,0.7,1.3,0.3s-0.3-4.5-0.3-4.5L94.7,31.4z"/>
<path class="st19" d="M93.6,28c0,0,0.6,6.5-1.4,4.5l0.1-0.3c0,0,1.4,0.7,1.3,0.3c-0.1-0.4-0.3-4.5-0.3-4.5L93.6,28z"/>
<path class="st19" d="M95.3,36.5c0,0-5.4-3.7-2.3-3.8l0.1,0.2c0,0-1.6,0.5-1.2,0.7c0.4,0.2,3.6,2.7,3.6,2.7L95.3,36.5z"/>
<path class="st19" d="M96.9,35.2c0,0-6.5-5.6-4.4,1.1l0.3-0.1c0,0-0.6-2.9-0.2-2.7c0,0,0-0.6,3.9,1.9L96.9,35.2z"/>
<path class="st19" d="M92.1,32.9c0,0,4.3,3.7,2.9-0.7l-0.2,0.1c0,0,0.4,2,0.1,1.8c0,0,0,0.4-2.6-1.3L92.1,32.9z"/>
<path class="st19" d="M96.4,34.2c0,0-5.3,1-3.6-0.7l0.2,0.1c0,0-0.7,1.1-0.3,0.9c0.4-0.1,3.7-0.5,3.7-0.5L96.4,34.2z"/>
<path class="st19" d="M92.2,35.1c0,0,3.4-4.2,3.3-2l-0.2,0.1c0,0-0.3-1.1-0.5-0.8c-0.2,0.3-2.5,2.8-2.5,2.8L92.2,35.1z"/>
<path class="st19" d="M93.2,36.1c0,0,5-5.1-0.5-3l0.1,0.2c0,0,2.4-0.7,2.2-0.3c0,0,0.4,0-1.8,2.9L93.2,36.1z"/>
<path class="st19" d="M95.4,32.5c0,0-3.3,3.4,0.4,2l-0.1-0.2c0,0-1.6,0.4-1.4,0.2c0,0-0.3,0,1.2-2L95.4,32.5z"/>
<path class="st19" d="M95.6,31.7c0,0-8.4,3.1-6.1,0l0.3,0c0,0-0.7,1.9-0.2,1.6s5.9-1.9,5.9-1.9L95.6,31.7z"/>
<path class="st19" d="M91,36c0,0,4.2-7.6,4.7-4.1l-0.3,0.2c0,0-0.8-1.7-1.1-1.1c-0.2,0.5-3.1,5.2-3.1,5.2L91,36z"/>
<path class="st23" d="M93.5,37.7c0,0,4.2-7.6,4.7-4.1l-0.3,0.2c0,0-0.8-1.7-1.1-1.1s-3.1,5.2-3.1,5.2L93.5,37.7z"/>
<path class="st19" d="M94.8,29.5c0,0-4.4,6.4,1.3,3.1L96,32.4c0,0-2.5,1.2-2.3,0.8c0,0-0.5,0.1,1.4-3.5L94.8,29.5z"/>
<path class="st19" d="M94.1,36.4c0,0-1.9-5.8,0.4-4.4l-0.1,0.2c0,0-1.5-0.4-1.3,0c0.2,0.4,1.1,4.1,1.1,4.1L94.1,36.4z"/>
<path class="st19" d="M92.5,31.9c0,0,5.8,2.4,3,3.1l-0.1-0.2c0,0,1.4-0.7,1-0.8c-0.4-0.1-4-1.9-4-1.9L92.5,31.9z"/>
<path class="st19" d="M90.3,27.3c0,0,5.8,2.4,3,3.1l-0.1-0.2c0,0,1.4-0.7,1-0.8c-0.4-0.1-4-1.9-4-1.9L90.3,27.3z"/>
<path class="st19" d="M93.9,29.8c0,0,5.8,2.4,3,3.1l-0.1-0.2c0,0,1.4-0.7,1-0.8c-0.4-0.1-4-1.9-4-1.9L93.9,29.8z"/>
<path class="st19" d="M92.4,27.7c0,0,5.8,2.4,3,3.1l-0.1-0.2c0,0,1.4-0.7,1-0.8c-0.4-0.1-4-1.9-4-1.9L92.4,27.7z"/>
<path class="st19" d="M90.3,26.6c0,0,5.8,2.4,3,3.1l-0.1-0.2c0,0,1.4-0.7,1-0.8c-0.4-0.1-4-1.9-4-1.9L90.3,26.6z"/>
<path class="st19" d="M93.4,28.2c0,0,4.2,4.8,1.3,4.1l0-0.2c0,0,1.6,0,1.3-0.3s-2.8-3.4-2.8-3.4L93.4,28.2z"/>
<path class="st19" d="M89.1,30.6c0,0,7.3,4,3.9-1.7L92.7,29c0,0,1.1,2.6,0.7,2.4c0,0,0.1,0.5-4.1-1.1L89.1,30.6z"/>
<path class="st23" d="M93.5,35c0,0,7.3,4,3.9-1.7l-0.3,0.2c0,0,1.1,2.6,0.7,2.4c0,0,0.1,0.5-4.1-1.1L93.5,35z"/>
<path class="st19" d="M96.3,34.6c0,0-4.8-2.6-2.6,1.2l0.2-0.1c0,0-0.8-1.7-0.5-1.6c0,0-0.1-0.3,2.7,0.7L96.3,34.6z"/>
<linearGradient id="SVGID_2_" gradientUnits="userSpaceOnUse" x1="51.8434" y1="52.6266" x2="50.2576" y2="7.214">
	<stop  offset="0.1969" style="stop-color:#E5C500"/>
	<stop  offset="0.5521" style="stop-color:#FBB03B"/>
	<stop  offset="0.9944" style="stop-color:#FBB03B"/>
</linearGradient>
<path class="st24" d="M96,45.5C95.8-2.6,9-9.2,7.3,47.9c-0.1,1.7,0.4,3.3,2.1,3.3h83.4C95.7,51.2,96,48.4,96,45.5z"/>
<path class="st2" d="M7.5,49.7C7.4,49.9,6.7,54,20,54c17.8,0,79.8,0,79.8,0s-4.9,0-3.8-6.5"/>
</svg>
